<mxfile host="app.diagrams.net" agent="Mozilla/5.0 (Windows NT 10.0; Win64; x64) AppleWebKit/537.36 (KHTML, like Gecko) Chrome/135.0.0.0 Safari/537.36" version="26.2.10">
  <diagram id="C5RBs43oDa-KdzZeNtuy" name="Page-1">
    <mxGraphModel dx="1647" dy="906" grid="1" gridSize="10" guides="1" tooltips="1" connect="1" arrows="1" fold="1" page="1" pageScale="1" pageWidth="827" pageHeight="1169" math="0" shadow="0">
      <root>
        <mxCell id="WIyWlLk6GJQsqaUBKTNV-0" />
        <mxCell id="WIyWlLk6GJQsqaUBKTNV-1" parent="WIyWlLk6GJQsqaUBKTNV-0" />
        <mxCell id="UXJgWuWyszOjRrbLKp7_-2" value="" style="edgeStyle=orthogonalEdgeStyle;rounded=0;orthogonalLoop=1;jettySize=auto;html=1;" edge="1" parent="WIyWlLk6GJQsqaUBKTNV-1" source="UXJgWuWyszOjRrbLKp7_-0" target="UXJgWuWyszOjRrbLKp7_-1">
          <mxGeometry relative="1" as="geometry" />
        </mxCell>
        <mxCell id="UXJgWuWyszOjRrbLKp7_-0" value="Start" style="ellipse;whiteSpace=wrap;html=1;" vertex="1" parent="WIyWlLk6GJQsqaUBKTNV-1">
          <mxGeometry x="354" y="90" width="120" height="80" as="geometry" />
        </mxCell>
        <mxCell id="UXJgWuWyszOjRrbLKp7_-4" value="" style="edgeStyle=orthogonalEdgeStyle;rounded=0;orthogonalLoop=1;jettySize=auto;html=1;" edge="1" parent="WIyWlLk6GJQsqaUBKTNV-1" source="UXJgWuWyszOjRrbLKp7_-1" target="UXJgWuWyszOjRrbLKp7_-3">
          <mxGeometry relative="1" as="geometry" />
        </mxCell>
        <mxCell id="UXJgWuWyszOjRrbLKp7_-1" value="Define Constants and Variables" style="rounded=0;whiteSpace=wrap;html=1;" vertex="1" parent="WIyWlLk6GJQsqaUBKTNV-1">
          <mxGeometry x="354" y="220" width="120" height="60" as="geometry" />
        </mxCell>
        <mxCell id="UXJgWuWyszOjRrbLKp7_-6" value="" style="edgeStyle=orthogonalEdgeStyle;rounded=0;orthogonalLoop=1;jettySize=auto;html=1;" edge="1" parent="WIyWlLk6GJQsqaUBKTNV-1" source="UXJgWuWyszOjRrbLKp7_-3" target="UXJgWuWyszOjRrbLKp7_-5">
          <mxGeometry relative="1" as="geometry" />
        </mxCell>
        <mxCell id="UXJgWuWyszOjRrbLKp7_-3" value="Create Array of length equal to the amount of time steps in 15000s" style="rounded=0;whiteSpace=wrap;html=1;" vertex="1" parent="WIyWlLk6GJQsqaUBKTNV-1">
          <mxGeometry x="354" y="320" width="120" height="60" as="geometry" />
        </mxCell>
        <mxCell id="UXJgWuWyszOjRrbLKp7_-9" value="" style="edgeStyle=orthogonalEdgeStyle;rounded=0;orthogonalLoop=1;jettySize=auto;html=1;" edge="1" parent="WIyWlLk6GJQsqaUBKTNV-1" source="UXJgWuWyszOjRrbLKp7_-5" target="UXJgWuWyszOjRrbLKp7_-8">
          <mxGeometry relative="1" as="geometry" />
        </mxCell>
        <mxCell id="UXJgWuWyszOjRrbLKp7_-24" value="" style="edgeStyle=orthogonalEdgeStyle;rounded=0;orthogonalLoop=1;jettySize=auto;html=1;" edge="1" parent="WIyWlLk6GJQsqaUBKTNV-1" source="UXJgWuWyszOjRrbLKp7_-5" target="UXJgWuWyszOjRrbLKp7_-23">
          <mxGeometry relative="1" as="geometry" />
        </mxCell>
        <mxCell id="UXJgWuWyszOjRrbLKp7_-25" value="END" style="edgeLabel;html=1;align=center;verticalAlign=middle;resizable=0;points=[];" vertex="1" connectable="0" parent="UXJgWuWyszOjRrbLKp7_-24">
          <mxGeometry x="-0.4769" y="2" relative="1" as="geometry">
            <mxPoint x="14" y="-8" as="offset" />
          </mxGeometry>
        </mxCell>
        <mxCell id="UXJgWuWyszOjRrbLKp7_-5" value="Loop for N times, where N is the number of time steps" style="rhombus;whiteSpace=wrap;html=1;" vertex="1" parent="WIyWlLk6GJQsqaUBKTNV-1">
          <mxGeometry x="308.25" y="420" width="211.5" height="100" as="geometry" />
        </mxCell>
        <mxCell id="UXJgWuWyszOjRrbLKp7_-11" value="" style="edgeStyle=orthogonalEdgeStyle;rounded=0;orthogonalLoop=1;jettySize=auto;html=1;" edge="1" parent="WIyWlLk6GJQsqaUBKTNV-1" source="UXJgWuWyszOjRrbLKp7_-8" target="UXJgWuWyszOjRrbLKp7_-10">
          <mxGeometry relative="1" as="geometry" />
        </mxCell>
        <mxCell id="UXJgWuWyszOjRrbLKp7_-8" value="Calculate vectors from spacecraft to each planet" style="rounded=0;whiteSpace=wrap;html=1;" vertex="1" parent="WIyWlLk6GJQsqaUBKTNV-1">
          <mxGeometry x="354" y="555" width="120" height="60" as="geometry" />
        </mxCell>
        <mxCell id="UXJgWuWyszOjRrbLKp7_-13" value="" style="edgeStyle=orthogonalEdgeStyle;rounded=0;orthogonalLoop=1;jettySize=auto;html=1;" edge="1" parent="WIyWlLk6GJQsqaUBKTNV-1" source="UXJgWuWyszOjRrbLKp7_-10" target="UXJgWuWyszOjRrbLKp7_-12">
          <mxGeometry relative="1" as="geometry" />
        </mxCell>
        <mxCell id="UXJgWuWyszOjRrbLKp7_-10" value="Take the modulus of these two vectors" style="rounded=0;whiteSpace=wrap;html=1;" vertex="1" parent="WIyWlLk6GJQsqaUBKTNV-1">
          <mxGeometry x="354" y="650" width="120" height="60" as="geometry" />
        </mxCell>
        <mxCell id="UXJgWuWyszOjRrbLKp7_-15" value="" style="edgeStyle=orthogonalEdgeStyle;rounded=0;orthogonalLoop=1;jettySize=auto;html=1;" edge="1" parent="WIyWlLk6GJQsqaUBKTNV-1" source="UXJgWuWyszOjRrbLKp7_-12" target="UXJgWuWyszOjRrbLKp7_-14">
          <mxGeometry relative="1" as="geometry" />
        </mxCell>
        <mxCell id="UXJgWuWyszOjRrbLKp7_-12" value="Use the distances to find the accelerations due to gravity" style="rounded=0;whiteSpace=wrap;html=1;" vertex="1" parent="WIyWlLk6GJQsqaUBKTNV-1">
          <mxGeometry x="354" y="750" width="120" height="60" as="geometry" />
        </mxCell>
        <mxCell id="UXJgWuWyszOjRrbLKp7_-17" value="" style="edgeStyle=orthogonalEdgeStyle;rounded=0;orthogonalLoop=1;jettySize=auto;html=1;" edge="1" parent="WIyWlLk6GJQsqaUBKTNV-1" source="UXJgWuWyszOjRrbLKp7_-14" target="UXJgWuWyszOjRrbLKp7_-16">
          <mxGeometry relative="1" as="geometry" />
        </mxCell>
        <mxCell id="UXJgWuWyszOjRrbLKp7_-14" value="Combine the accelerations by adding them" style="rounded=0;whiteSpace=wrap;html=1;" vertex="1" parent="WIyWlLk6GJQsqaUBKTNV-1">
          <mxGeometry x="354" y="850" width="120" height="60" as="geometry" />
        </mxCell>
        <mxCell id="UXJgWuWyszOjRrbLKp7_-20" value="" style="edgeStyle=orthogonalEdgeStyle;rounded=0;orthogonalLoop=1;jettySize=auto;html=1;" edge="1" parent="WIyWlLk6GJQsqaUBKTNV-1" source="UXJgWuWyszOjRrbLKp7_-16" target="UXJgWuWyszOjRrbLKp7_-19">
          <mxGeometry relative="1" as="geometry" />
        </mxCell>
        <mxCell id="UXJgWuWyszOjRrbLKp7_-16" value="Calculate the new velocity and therefore distance using eulers method" style="rounded=0;whiteSpace=wrap;html=1;" vertex="1" parent="WIyWlLk6GJQsqaUBKTNV-1">
          <mxGeometry x="354" y="950" width="120" height="60" as="geometry" />
        </mxCell>
        <mxCell id="UXJgWuWyszOjRrbLKp7_-22" style="edgeStyle=orthogonalEdgeStyle;rounded=0;orthogonalLoop=1;jettySize=auto;html=1;entryX=0;entryY=0.5;entryDx=0;entryDy=0;" edge="1" parent="WIyWlLk6GJQsqaUBKTNV-1" source="UXJgWuWyszOjRrbLKp7_-19" target="UXJgWuWyszOjRrbLKp7_-5">
          <mxGeometry relative="1" as="geometry">
            <Array as="points">
              <mxPoint x="230" y="1080" />
              <mxPoint x="230" y="470" />
            </Array>
          </mxGeometry>
        </mxCell>
        <mxCell id="UXJgWuWyszOjRrbLKp7_-19" value="Store data in the large array under the relevant time step" style="rounded=0;whiteSpace=wrap;html=1;" vertex="1" parent="WIyWlLk6GJQsqaUBKTNV-1">
          <mxGeometry x="354" y="1050" width="120" height="60" as="geometry" />
        </mxCell>
        <mxCell id="UXJgWuWyszOjRrbLKp7_-27" value="" style="edgeStyle=orthogonalEdgeStyle;rounded=0;orthogonalLoop=1;jettySize=auto;html=1;" edge="1" parent="WIyWlLk6GJQsqaUBKTNV-1" source="UXJgWuWyszOjRrbLKp7_-23" target="UXJgWuWyszOjRrbLKp7_-26">
          <mxGeometry relative="1" as="geometry" />
        </mxCell>
        <mxCell id="UXJgWuWyszOjRrbLKp7_-23" value="Plot the large array" style="rounded=0;whiteSpace=wrap;html=1;" vertex="1" parent="WIyWlLk6GJQsqaUBKTNV-1">
          <mxGeometry x="580" y="440" width="120" height="60" as="geometry" />
        </mxCell>
        <mxCell id="UXJgWuWyszOjRrbLKp7_-26" value="End" style="strokeWidth=2;html=1;shape=mxgraph.flowchart.terminator;whiteSpace=wrap;" vertex="1" parent="WIyWlLk6GJQsqaUBKTNV-1">
          <mxGeometry x="575" y="555" width="130" height="60" as="geometry" />
        </mxCell>
      </root>
    </mxGraphModel>
  </diagram>
</mxfile>
